<svg xmlns="http://www.w3.org/2000/svg" width="93" height="93" viewBox="0 0 93 93" fill="none">
  <path d="M0.700195 0.600006V92.4H32.6002V90.1H28.3002C25.8002 90.1 21.3002 87.9 22.5002 84.8L33.9002 54.8L38.4002 42.8L42.0002 33.3L63.5002 90.1H52.8002V92.4H92.5002V0.600006H0.700195ZM90.3002 90.1H75.1002L69.8002 76.1L68.9002 73.8L59.4002 48.8L47.8002 18.3L47.3002 17H46.0002L45.5002 18.4L42.7002 25.8L41.0002 30.3L34.1002 48.4L29.5002 60.4L19.9002 85.8C18.5002 88.9 16.6002 90.1 13.1002 90.1H3.10019V2.89999H90.3002V90.1Z" fill="#101820"/>
</svg>